<?xml version="1.0" encoding="UTF-8"?>
<DecentSampler minVersion="1.0.0">
  
  <ui bgImage="Samples/GretschCatalinaAsh_v2.jpg" width="812" height="375">
    <tab name="main">
      
      <labeled-knob style="linear_bar" width="100" height="100" trackForegroundColor="FFeadcc5" x="40" y="10" label="mic volume" 
        type="float" minValue="0" maxValue="1" textColor="FF000000" textSize="20" value="1">
        <binding type="amp" level="group" position="0" parameter="AMP_VOLUME" translation="linear" 
          translationOutputMin="0" translationOutputMax="1.0" />
      </labeled-knob>
      
      <labeled-knob style="linear_bar" width="100" height="100" trackForegroundColor="FFeadcc5" x="40" y="100" label="room volume" 
        textSize="20" type="float" minValue="0" maxValue="1" textColor="FF000000" value="0.5">
        <binding type="amp" level="group" position="1" parameter="AMP_VOLUME" translation="linear" 
          translationOutputMin="0" translationOutputMax="1.0" />
      </labeled-knob>

      <labeled-knob style="linear_bar" width="100" height="100" trackForegroundColor="FF336b8b" x="140" y="10" label="reverb" 
        textSize="20" type="float" minValue="0" maxValue="1" textColor="FF000000" value="0">
         <binding type="effect" level="instrument" position="0" parameter="FX_REVERB_WET_LEVEL" translation="linear"/>
      </labeled-knob>
      
      </tab>
      </ui>

<groups >

    <group name="mic" tags="sustain" silencedByTags="sustain" silencingMode="normal" release="15.0">
        <sample rootNote="C1" loNote="C1" hiNote="C1" loVel="101" hiVel="127" path="Samples/kick1_mic.wav" />
        <sample rootNote="C1" loNote="C1" hiNote="C1" loVel="81" hiVel="100"  path="Samples/kick2_mic.wav" />
        <sample rootNote="C1" loNote="C1" hiNote="C1" loVel="61" hiVel="80"  path="Samples/kick3_mic.wav" />
        <sample rootNote="C1" loNote="C1" hiNote="C1" loVel="41" hiVel="60"  path="Samples/kick4_mic.wav" />
        <sample rootNote="C1" loNote="C1" hiNote="C1" loVel="21" hiVel="40"  path="Samples/kick5_mic.wav" />
        <sample rootNote="C1" loNote="C1" hiNote="C1" loVel="1" hiVel="20"  path="Samples/kick6_mic.wav" />

        <sample rootNote="D1" loNote="D1" hiNote="D1" loVel="111" hiVel="127" path="Samples/snare1_mic.wav" />
        <sample rootNote="D1" loNote="D1" hiNote="D1" loVel="90" hiVel="111"  path="Samples/snare2_mic.wav" />
        <sample rootNote="D1" loNote="D1" hiNote="D1" loVel="79" hiVel="89"   path="Samples/snare3_mic.wav" />        
        <sample rootNote="D1" loNote="D1" hiNote="D1" loVel="61" hiVel="78"   path="Samples/snare4_mic.wav" />
        <sample rootNote="D1" loNote="D1" hiNote="D1" loVel="41" hiVel="60"   path="Samples/snare5_mic.wav" />
        <sample rootNote="D1" loNote="D1" hiNote="D1" loVel="21" hiVel="40"   path="Samples/snare6_mic.wav" />
        <sample rootNote="D1" loNote="D1" hiNote="D1" loVel="1" hiVel="20"    path="Samples/snare7_mic.wav" />

        <sample rootNote="D#1" loNote="D#1" hiNote="D#1" loVel="101" hiVel="127"  path="Samples/sidestick1_mic.wav" />
        <sample rootNote="D#1" loNote="D#1" hiNote="D#1" loVel="81" hiVel="100"  path="Samples/sidestick2_mic.wav" />
        <sample rootNote="D#1" loNote="D#1" hiNote="D#1" loVel="61" hiVel="80"  path="Samples/sidestick3_mic.wav" />
        <sample rootNote="D#1" loNote="D#1" hiNote="D#1" loVel="41" hiVel="60"  path="Samples/sidestick4_mic.wav" />
        <sample rootNote="D#1" loNote="D#1" hiNote="D#1" loVel="21" hiVel="40"  path="Samples/sidestick5_mic.wav" />
        <sample rootNote="D#1" loNote="D#1" hiNote="D#1" loVel="1" hiVel="20"  path="Samples/sidestick6_mic.wav" />

        <sample rootNote="E1" loNote="E1" hiNote="E1" loVel="111" hiVel="127"   path="Samples/snareWiresOff1_mic.wav" />
        <sample rootNote="E1" loNote="E1" hiNote="E1" loVel="86" hiVel="110"    path="Samples/snareWiresOff2_mic.wav" />
        <sample rootNote="E1" loNote="E1" hiNote="E1" loVel="61" hiVel="85"     path="Samples/snareWiresOff3_mic.wav" />
        <sample rootNote="E1" loNote="E1" hiNote="E1" loVel="31" hiVel="60"     path="Samples/snareWiresOff4_mic.wav" />
        <sample rootNote="E1" loNote="E1" hiNote="E1" loVel="1" hiVel="30"      path="Samples/snareWiresOff5_mic.wav" />

        <sample rootNote="F1" loNote="F1" hiNote="F1" loVel="111" hiVel="127"  path="Samples/tom8_1_mic.wav" />
        <sample rootNote="F1" loNote="F1" hiNote="F1" loVel="71" hiVel="110"   path="Samples/tom8_2_mic.wav" />
        <sample rootNote="F1" loNote="F1" hiNote="F1" loVel="41" hiVel="70"    path="Samples/tom8_3_mic.wav" />
        <sample rootNote="F1" loNote="F1" hiNote="F1" loVel="1" hiVel="40"     path="Samples/tom8_4_mic.wav" />

        <sample rootNote="G1" loNote="G1" hiNote="G1" loVel="111" hiVel="127" path="Samples/tom10_1_mic.wav" />
        <sample rootNote="G1" loNote="G1" hiNote="G1" loVel="71" hiVel="110"  path="Samples/tom10_2_mic.wav" />
        <sample rootNote="G1" loNote="G1" hiNote="G1" loVel="41" hiVel="70"   path="Samples/tom10_3_mic.wav" />
        <sample rootNote="G1" loNote="G1" hiNote="G1" loVel="1" hiVel="40"    path="Samples/tom10_4_mic.wav" />

        <sample rootNote="A1" loNote="A1" hiNote="A1" loVel="111" hiVel="127"  path="Samples/tom12_1_mic.wav" />
        <sample rootNote="A1" loNote="A1" hiNote="A1" loVel="86" hiVel="110"   path="Samples/tom12_2_mic.wav" />
        <sample rootNote="A1" loNote="A1" hiNote="A1" loVel="61" hiVel="85"    path="Samples/tom12_3_mic.wav" />
        <sample rootNote="A1" loNote="A1" hiNote="A1" loVel="31" hiVel="60"    path="Samples/tom12_4_mic.wav" />
        <sample rootNote="A1" loNote="A1" hiNote="A1" loVel="1" hiVel="30"     path="Samples/tom12_5_mic.wav" />

        <sample rootNote="B1" loNote="B1" hiNote="B1" loVel="111" hiVel="127"  path="Samples/tom14_1_mic.wav" />
        <sample rootNote="B1" loNote="B1" hiNote="B1" loVel="71" hiVel="110"   path="Samples/tom14_2_mic.wav" />
        <sample rootNote="B1" loNote="B1" hiNote="B1" loVel="41" hiVel="70"    path="Samples/tom14_3_mic.wav" />
        <sample rootNote="B1" loNote="B1" hiNote="B1" loVel="1" hiVel="40"     path="Samples/tom14_4_mic.wav" />

        <sample rootNote="C2" loNote="C2" hiNote="C2" loVel="111" hiVel="127" path="Samples/tom16_1_mic.wav" />
        <sample rootNote="C2" loNote="C2" hiNote="C2" loVel="71" hiVel="110"  path="Samples/tom16_2_mic.wav" />
        <sample rootNote="C2" loNote="C2" hiNote="C2" loVel="41" hiVel="70"   path="Samples/tom16_3_mic.wav" />
        <sample rootNote="C2" loNote="C2" hiNote="C2" loVel="1" hiVel="40"    path="Samples/tom16_4_mic.wav" />

   
    </group>

    <group name="room" tags="sustain" silencedByTags="sustain" silencingMode="normal" release="15.0">
        <sample rootNote="C1" loNote="C1" hiNote="C1" loVel="101" hiVel="127" path="Samples/kick1_room.wav" />
        <sample rootNote="C1" loNote="C1" hiNote="C1" loVel="81" hiVel="100" path="Samples/kick2_room.wav" />
        <sample rootNote="C1" loNote="C1" hiNote="C1" loVel="61" hiVel="80" path="Samples/kick3_room.wav" />
        <sample rootNote="C1" loNote="C1" hiNote="C1" loVel="41" hiVel="60" path="Samples/kick4_room.wav" />
        <sample rootNote="C1" loNote="C1" hiNote="C1" loVel="21" hiVel="40" path="Samples/kick5_room.wav" />
        <sample rootNote="C1" loNote="C1" hiNote="C1" loVel="1" hiVel="20" path="Samples/kick6_room.wav" />

        <sample rootNote="D1" loNote="D1" hiNote="D1" loVel="111" hiVel="127" path="Samples/snare1_room.wav" />
        <sample rootNote="D1" loNote="D1" hiNote="D1" loVel="90" hiVel="111" path="Samples/snare2_room.wav" />
        <sample rootNote="D1" loNote="D1" hiNote="D1" loVel="79" hiVel="89"  path="Samples/snare3_room.wav" />
        <sample rootNote="D1" loNote="D1" hiNote="D1" loVel="61" hiVel="78"  path="Samples/snare4_room.wav" />
        <sample rootNote="D1" loNote="D1" hiNote="D1" loVel="41" hiVel="60"  path="Samples/snare5_room.wav" />
        <sample rootNote="D1" loNote="D1" hiNote="D1" loVel="21" hiVel="40"  path="Samples/snare6_room.wav" />
        <sample rootNote="D1" loNote="D1" hiNote="D1" loVel="1" hiVel="20"   path="Samples/snare7_room.wav" />

        <sample rootNote="D#1" loNote="D#1" hiNote="D#1" loVel="101" hiVel="127"  path="Samples/sidestick1_room.wav" />
        <sample rootNote="D#1" loNote="D#1" hiNote="D#1" loVel="81" hiVel="100"  path="Samples/sidestick2_room.wav" />
        <sample rootNote="D#1" loNote="D#1" hiNote="D#1" loVel="61" hiVel="80"  path="Samples/sidestick3_room.wav" />
        <sample rootNote="D#1" loNote="D#1" hiNote="D#1" loVel="41" hiVel="60"  path="Samples/sidestick4_room.wav" />
        <sample rootNote="D#1" loNote="D#1" hiNote="D#1" loVel="21" hiVel="40"  path="Samples/sidestick5_room.wav" />
        <sample rootNote="D#1" loNote="D#1" hiNote="D#1" loVel="1" hiVel="20"  path="Samples/sidestick6_room.wav" />

        <sample rootNote="E1" loNote="E1" hiNote="E1" loVel="111" hiVel="127" path="Samples/snareWiresOff1_room.wav" />
        <sample rootNote="E1" loNote="E1" hiNote="E1" loVel="86" hiVel="110" path="Samples/snareWiresOff2_room.wav" />
        <sample rootNote="E1" loNote="E1" hiNote="E1" loVel="61" hiVel="85" path="Samples/snareWiresOff3_room.wav" />
        <sample rootNote="E1" loNote="E1" hiNote="E1" loVel="31" hiVel="60" path="Samples/snareWiresOff4_room.wav" />
        <sample rootNote="E1" loNote="E1" hiNote="E1" loVel="1" hiVel="30" path="Samples/snareWiresOff5_room.wav" />

        <sample rootNote="F1" loNote="F1" hiNote="F1" loVel="111" hiVel="127" path="Samples/tom8_1_room.wav" />
        <sample rootNote="F1" loNote="F1" hiNote="F1" loVel="71" hiVel="110" path="Samples/tom8_2_room.wav" />
        <sample rootNote="F1" loNote="F1" hiNote="F1" loVel="41" hiVel="70" path="Samples/tom8_3_room.wav" />
        <sample rootNote="F1" loNote="F1" hiNote="F1" loVel="1" hiVel="40" path="Samples/tom8_4_room.wav" />

        <sample rootNote="G1" loNote="G1" hiNote="G1" loVel="111" hiVel="127" path="Samples/tom10_1_room.wav" />
        <sample rootNote="G1" loNote="G1" hiNote="G1" loVel="71" hiVel="110"  path="Samples/tom10_2_room.wav" />
        <sample rootNote="G1" loNote="G1" hiNote="G1" loVel="41" hiVel="70"   path="Samples/tom10_3_room.wav" />
        <sample rootNote="G1" loNote="G1" hiNote="G1" loVel="1" hiVel="40"    path="Samples/tom10_4_room.wav" />

        <sample rootNote="A1" loNote="A1" hiNote="A1" loVel="111" hiVel="127"  path="Samples/tom12_1_room.wav" />
        <sample rootNote="A1" loNote="A1" hiNote="A1" loVel="86" hiVel="110"   path="Samples/tom12_2_room.wav" />
        <sample rootNote="A1" loNote="A1" hiNote="A1" loVel="61" hiVel="85"    path="Samples/tom12_3_room.wav" />
        <sample rootNote="A1" loNote="A1" hiNote="A1" loVel="31" hiVel="60"    path="Samples/tom12_4_room.wav" />
        <sample rootNote="A1" loNote="A1" hiNote="A1" loVel="1" hiVel="30"     path="Samples/tom12_5_room.wav" />

        <sample rootNote="B1" loNote="B1" hiNote="B1" loVel="111" hiVel="127"  path="Samples/tom14_1_room.wav" />
        <sample rootNote="B1" loNote="B1" hiNote="B1" loVel="71" hiVel="110"   path="Samples/tom14_2_room.wav" />
        <sample rootNote="B1" loNote="B1" hiNote="B1" loVel="41" hiVel="70"    path="Samples/tom14_3_room.wav" />
        <sample rootNote="B1" loNote="B1" hiNote="B1" loVel="1" hiVel="40"     path="Samples/tom14_4_room.wav" />

        <sample rootNote="C2" loNote="C2" hiNote="C2" loVel="111" hiVel="127" path="Samples/tom16_1_room.wav" />
        <sample rootNote="C2" loNote="C2" hiNote="C2" loVel="71" hiVel="110"  path="Samples/tom16_2_room.wav" />
        <sample rootNote="C2" loNote="C2" hiNote="C2" loVel="41" hiVel="70"   path="Samples/tom16_3_room.wav" />
        <sample rootNote="C2" loNote="C2" hiNote="C2" loVel="1" hiVel="40"    path="Samples/tom16_4_room.wav" />

</group>

    </groups>
  
    <effects>
    <effect type="reverb" roomSize="0.7" damping="0.3" wetLevel="0" />
  </effects>

  </DecentSampler>